<svg width="83" height="82" viewBox="0 0 83 82" fill="none" xmlns="http://www.w3.org/2000/svg">
<path d="M21.2799 16.8999C23.268 16.8999 24.8799 18.5118 24.8799 20.4999C24.8799 22.488 23.268 24.0999 21.2799 24.0999C19.2918 24.0999 17.6799 22.488 17.6799 20.4999C17.6799 18.5118 19.2918 16.8999 21.2799 16.8999Z" fill="#E2DEEF"/>
<path d="M62.2799 16.8999C64.268 16.8999 65.8799 18.5118 65.8799 20.4999C65.8799 22.488 64.268 24.0999 62.2799 24.0999C60.2918 24.0999 58.6799 22.488 58.6799 20.4999C58.6799 18.5118 60.2918 16.8999 62.2799 16.8999Z" fill="#E2DEEF"/>
<path d="M21.2799 57.8999C23.268 57.8999 24.8799 59.5118 24.8799 61.4999C24.8799 63.488 23.268 65.0999 21.2799 65.0999C19.2918 65.0999 17.6799 63.488 17.6799 61.4999C17.6799 59.5118 19.2918 57.8999 21.2799 57.8999Z" fill="#E2DEEF"/>
<path d="M62.2799 57.8999C64.268 57.8999 65.8799 59.5118 65.8799 61.4999C65.8799 63.488 64.268 65.0999 62.2799 65.0999C60.2918 65.0999 58.6799 63.488 58.6799 61.4999C58.6799 59.5118 60.2918 57.8999 62.2799 57.8999Z" fill="#E2DEEF"/>
</svg>
